# xmcd CD database file
#
# Track frame offsets:
#	150
#	14130
#	26983
#	39658
#	53116
#	66237
#	79912
#	92990
#	106307
#	119121
#	133503
#	148114
#	158545
#	172701
#	186681
#	201659
#	214524
#	228828
#	242037
#	254809
#
# Disc length: 3595 seconds
#
# Revision: 0
# Processed by: cddbd v1.5.1PL2 Copyright (c) Steve Scherf et al.
# Submitted via: CDex 1.51
#
DISCID=330e0914
DTITLE=Mel Torme - A Foggy Day
DYEAR=2005
DGENRE=Jazz
TTITLE0=Try A Little Tenderness
TTITLE1=Day By Day
TTITLE2=I Believe
TTITLE3=I Got The Sun In The Morning
TTITLE4=There's No Business Like Show Business
TTITLE5=It's The Same Old Dream
TTITLE6=A Foggy Day
TTITLE7=Gone With The Wind
TTITLE8=The Best Things In Life Are Free
TTITLE9=Blue Moon
TTITLE10=Careless Hands
TTITLE11=Oh You Beautiful Doll
TTITLE12=The Four Winds and The Seven Seas
TTITLE13=You're Getting To Be A Habit With Me
TTITLE14=Bewitched, Bothered and Bewildered
TTITLE15=The Old Master Painter
TTITLE16=Again
TTITLE17=Heart and Soul
TTITLE18=All Of You
TTITLE19=Get Out Of Town
EXTD=YEAR: 2005
EXTT0=
EXTT1=
EXTT2=
EXTT3=
EXTT4=
EXTT5=
EXTT6=
EXTT7=
EXTT8=
EXTT9=
EXTT10=
EXTT11=
EXTT12=
EXTT13=
EXTT14=
EXTT15=
EXTT16=
EXTT17=
EXTT18=
EXTT19=
PLAYORDER=
